<svg width="180" height="48" viewBox="0 0 180 48" fill="none" xmlns="http://www.w3.org/2000/svg">
<rect width="180" height="48" fill="white"/>
<path d="M26.4741 13.9091V35H22.6225L13.4467 21.7255H13.2923V35H8.8331V13.9091H12.7464L21.8501 27.1733H22.0355V13.9091H26.4741ZM40.2197 28.2649V19.1818H44.6068V35H40.3948V32.1268H40.23C39.873 33.0536 39.2791 33.7985 38.4484 34.3615C37.6246 34.9245 36.6188 35.206 35.431 35.206C34.3737 35.206 33.4434 34.9657 32.6402 34.4851C31.8369 34.0045 31.2087 33.3214 30.7556 32.4357C30.3093 31.5501 30.0828 30.4893 30.0759 29.2536V19.1818H34.463V28.4709C34.4698 29.4046 34.7204 30.1426 35.2148 30.685C35.7091 31.2274 36.3716 31.4986 37.2023 31.4986C37.731 31.4986 38.2253 31.3784 38.6853 31.1381C39.1453 30.891 39.516 30.5271 39.7975 30.0465C40.0858 29.5659 40.2266 28.9721 40.2197 28.2649ZM51.7821 19.1818L54.6863 24.712L57.6625 19.1818H62.1628L57.5801 27.0909L62.2864 35H57.8066L54.6863 29.5316L51.6174 35H47.0861L51.7821 27.0909L47.2509 19.1818H51.7821ZM73.182 19.1818V22.4773H63.6561V19.1818H73.182ZM65.8187 15.392H70.2058V30.1392C70.2058 30.5443 70.2676 30.8601 70.3912 31.0866C70.5147 31.3063 70.6864 31.4608 70.9061 31.5501C71.1326 31.6393 71.3935 31.6839 71.6887 31.6839C71.8947 31.6839 72.1007 31.6668 72.3066 31.6325C72.5126 31.5913 72.6705 31.5604 72.7804 31.5398L73.4703 34.8043C73.2507 34.873 72.9417 34.9519 72.5435 35.0412C72.1453 35.1373 71.6613 35.1957 71.0914 35.2163C70.0342 35.2575 69.1073 35.1167 68.3109 34.794C67.5214 34.4714 66.9069 33.9702 66.4675 33.2905C66.0281 32.6108 65.8118 31.7526 65.8187 30.7159V15.392ZM90.5063 35.2884C88.9684 35.2884 87.5988 35.024 86.3973 34.4954C85.2027 33.9599 84.2587 33.2253 83.5653 32.2915C82.8787 31.351 82.5251 30.2662 82.5045 29.0373H86.9946C87.022 29.5522 87.1903 30.0053 87.4992 30.3967C87.815 30.7811 88.2338 31.0798 88.7556 31.2926C89.2774 31.5054 89.8644 31.6119 90.5166 31.6119C91.1963 31.6119 91.797 31.4917 92.3188 31.2514C92.8406 31.0111 93.2491 30.6781 93.5443 30.2525C93.8395 29.8268 93.9871 29.3359 93.9871 28.7798C93.9871 28.2169 93.8292 27.7191 93.5134 27.2866C93.2045 26.8472 92.7582 26.5039 92.1746 26.2567C91.5979 26.0096 90.9114 25.886 90.115 25.886H88.148V22.6112H90.115C90.7878 22.6112 91.3817 22.4944 91.8966 22.261C92.4184 22.0276 92.8234 21.7049 93.1118 21.293C93.4001 20.8742 93.5443 20.3867 93.5443 19.8306C93.5443 19.302 93.4173 18.8385 93.1633 18.4403C92.9161 18.0353 92.566 17.7195 92.1128 17.4929C91.6666 17.2663 91.1448 17.1531 90.5475 17.1531C89.9433 17.1531 89.3907 17.2629 88.8895 17.4826C88.3883 17.6954 87.9867 18.0009 87.6846 18.3991C87.3825 18.7973 87.2211 19.2642 87.2006 19.7997H82.9268C82.9474 18.5845 83.2941 17.5135 83.9669 16.5866C84.6397 15.6598 85.546 14.9355 86.6856 14.4137C87.8322 13.8851 89.1263 13.6207 90.5681 13.6207C92.0236 13.6207 93.2971 13.8851 94.3888 14.4137C95.4804 14.9424 96.3283 15.6564 96.9324 16.5558C97.5435 17.4483 97.8456 18.4506 97.8387 19.5629C97.8456 20.7437 97.4782 21.7289 96.7368 22.5185C96.0022 23.308 95.0444 23.8092 93.8635 24.022V24.1868C95.4152 24.3859 96.596 24.9248 97.4062 25.8036C98.2232 26.6755 98.6282 27.7672 98.6214 29.0785C98.6282 30.2799 98.2815 31.3475 97.5812 32.2812C96.8878 33.215 95.9301 33.9496 94.708 34.4851C93.4859 35.0206 92.0854 35.2884 90.5063 35.2884Z" fill="#03BF72"/>
<path d="M108.662 35V13.9091H117.107C118.658 13.9091 119.953 14.1391 120.989 14.5991C122.026 15.0591 122.805 15.6976 123.327 16.5146C123.849 17.3247 124.11 18.2584 124.11 19.3157C124.11 20.1396 123.945 20.8639 123.615 21.4886C123.286 22.1065 122.833 22.6146 122.256 23.0128C121.686 23.4041 121.034 23.6822 120.299 23.8469V24.0529C121.103 24.0872 121.854 24.3138 122.555 24.7326C123.262 25.1514 123.835 25.7384 124.274 26.4936C124.714 27.242 124.934 28.1345 124.934 29.1712C124.934 30.2902 124.655 31.2892 124.099 32.168C123.55 33.0399 122.737 33.7299 121.659 34.2379C120.581 34.746 119.252 35 117.673 35H108.662ZM113.121 31.3544H116.757C117.999 31.3544 118.906 31.1175 119.475 30.6438C120.045 30.1632 120.33 29.5247 120.33 28.7283C120.33 28.1448 120.189 27.6299 119.908 27.1836C119.626 26.7373 119.225 26.3872 118.703 26.1332C118.188 25.8791 117.574 25.7521 116.86 25.7521H113.121V31.3544ZM113.121 22.7347H116.427C117.038 22.7347 117.581 22.6283 118.054 22.4155C118.535 22.1958 118.912 21.8868 119.187 21.4886C119.469 21.0904 119.609 20.6133 119.609 20.0572C119.609 19.2951 119.338 18.6806 118.796 18.2138C118.26 17.7469 117.498 17.5135 116.509 17.5135H113.121V22.7347ZM132.14 13.9091V35H127.753V13.9091H132.14ZM142.801 35.3089C141.201 35.3089 139.818 34.9691 138.651 34.2894C137.491 33.6029 136.595 32.6486 135.963 31.4265C135.331 30.1976 135.016 28.773 135.016 27.1527C135.016 25.5187 135.331 24.0907 135.963 22.8686C136.595 21.6397 137.491 20.6854 138.651 20.0057C139.818 19.3191 141.201 18.9759 142.801 18.9759C144.401 18.9759 145.781 19.3191 146.941 20.0057C148.108 20.6854 149.007 21.6397 149.639 22.8686C150.271 24.0907 150.587 25.5187 150.587 27.1527C150.587 28.773 150.271 30.1976 149.639 31.4265C149.007 32.6486 148.108 33.6029 146.941 34.2894C145.781 34.9691 144.401 35.3089 142.801 35.3089ZM142.822 31.9105C143.549 31.9105 144.157 31.7045 144.644 31.2926C145.132 30.8738 145.499 30.304 145.746 29.5831C146 28.8622 146.127 28.0418 146.127 27.1218C146.127 26.2018 146 25.3814 145.746 24.6605C145.499 23.9396 145.132 23.3698 144.644 22.951C144.157 22.5322 143.549 22.3228 142.822 22.3228C142.087 22.3228 141.469 22.5322 140.968 22.951C140.474 23.3698 140.099 23.9396 139.845 24.6605C139.598 25.3814 139.475 26.2018 139.475 27.1218C139.475 28.0418 139.598 28.8622 139.845 29.5831C140.099 30.304 140.474 30.8738 140.968 31.2926C141.469 31.7045 142.087 31.9105 142.822 31.9105ZM160.566 41.2614C159.144 41.2614 157.926 41.0657 156.91 40.6744C155.9 40.2899 155.097 39.7647 154.5 39.0987C153.903 38.4328 153.515 37.6844 153.336 36.8537L157.394 36.3079C157.517 36.6237 157.713 36.9189 157.981 37.1935C158.248 37.4682 158.602 37.6879 159.041 37.8526C159.488 38.0243 160.03 38.1101 160.669 38.1101C161.623 38.1101 162.409 37.8767 163.027 37.4098C163.652 36.9498 163.964 36.1774 163.964 35.0927V32.1989H163.779C163.586 32.6383 163.298 33.0536 162.914 33.445C162.529 33.8363 162.035 34.1555 161.431 34.4027C160.826 34.6499 160.106 34.7734 159.268 34.7734C158.08 34.7734 156.999 34.4988 156.024 33.9496C155.056 33.3935 154.284 32.5456 153.707 31.4059C153.137 30.2594 152.852 28.8107 152.852 27.06C152.852 25.2681 153.144 23.7714 153.728 22.57C154.311 21.3685 155.087 20.4691 156.055 19.8718C157.03 19.2745 158.097 18.9759 159.258 18.9759C160.143 18.9759 160.885 19.1269 161.482 19.429C162.079 19.7242 162.56 20.0949 162.924 20.5412C163.295 20.9806 163.58 21.4131 163.779 21.8388H163.943V19.1818H168.3V35.1545C168.3 36.5001 167.97 37.6261 167.311 38.5323C166.652 39.4386 165.739 40.1183 164.572 40.5714C163.411 41.0314 162.076 41.2614 160.566 41.2614ZM160.658 31.478C161.365 31.478 161.963 31.3029 162.45 30.9528C162.945 30.5958 163.322 30.0877 163.583 29.4286C163.851 28.7627 163.985 27.9663 163.985 27.0394C163.985 26.1126 163.854 25.3093 163.593 24.6296C163.332 23.9431 162.955 23.411 162.46 23.0334C161.966 22.6558 161.365 22.467 160.658 22.467C159.937 22.467 159.33 22.6626 158.835 23.054C158.341 23.4384 157.967 23.974 157.713 24.6605C157.459 25.3471 157.332 26.14 157.332 27.0394C157.332 27.9525 157.459 28.7421 157.713 29.408C157.974 30.0671 158.348 30.5786 158.835 30.9425C159.33 31.2995 159.937 31.478 160.658 31.478Z" fill="black"/>
</svg>
